<?xml version="1.0" encoding="UTF-8"?>
<svg id="Layer_1" data-name="Layer 1" xmlns="http://www.w3.org/2000/svg" viewBox="0 0 100 100">
  <defs>
    <style>
      .cls-1 {
        fill: #231f20;
      }

      .cls-2 {
        fill: #fff;
      }
    </style>
  </defs>
  <circle class="cls-2" cx="50" cy="50" r="50"/>
  <path class="cls-1" d="M41.14,16.13c-.3.4.2,1.8,1.3,3.3,1.3,1.8,2.2,6.1,3.1,14.2l1.2,11.7-7,8.3c-22.4,27-27.8,38.8-8.3,18.2,4.6-4.8,10-10.9,12.1-13.5,3.8-4.8,4.9-4.7,4.9.4,0,1.1,1,6.1,2.1,11.1,2.5,10.3,5.6,14.7,10.6,14.7,3.5,0,10.3-5.4,10.3-8.1q0-2-2.6,0c-5.1,4-7.8,2.2-10.8-6.9-.8-2.5-1.6-5.4-1.9-6.5-.4-1.6-.5-1.5-.6.5,0,1.4.8,5,1.9,8,1.3,3.9,1.4,4.9.4,3.5-2.3-3-3.6-9.5-3-13.9.3-2.3.2-6.5-.3-9.5l-.8-5.3,9.4-10.9c9.4-11,10.9-14.1,6.7-14.7-1.5-.2-3.8,1.8-8.5,7.3-3.5,4.1-6.5,8-6.7,8.5-.7,2-2.2.9-2.2-1.6,0-3.7-2.9-14.5-4.6-17.2-1.3-2-5.3-3-6.7-1.6Z"/>
</svg>