<?xml version="1.0" encoding="UTF-8"?>
<svg id="Layer_1" data-name="Layer 1" xmlns="http://www.w3.org/2000/svg" viewBox="0 0 282.78 115.67">
  <defs>
    <style>
      .cls-1 {
        fill: #fff;
      }
    </style>
  </defs>
  <path class="cls-1" d="M10.39,5.1c-3.8,2.8-7.9,5.7-9,6.5-1.7,1.2-1.8,1.6-.5,2.4.8.5,3.8,1.2,6.7,1.6,3.9.5,5.2,1.1,5.6,2.6s.1,1.8-1.6,1.6c-1.9-.3-2.2.3-2.5,3.4-.2,2.2.1,3.8.7,3.8s1.1-1.4,1.1-3c0-2.9,1.3-4,2.5-2,.3.5,1.8.9,3.3.9q2.4-.2.5-.6c-1.8-.3-2.3-1.1-2.3-3.5v-3l4.2,4.2c4.2,4.1,5.1,4.4,10.8,2.9,1.1-.3,1.6.6,1.7,3.6.6,9,2.7,16.3,7.4,25.6,2.7,5.5,5.4,9.9,5.9,9.9.6,0-1.2-4.5-4-10-2.7-5.5-5-10.3-5-10.7,0-.5,2.1-.7,4.7-.5,5.1.3,21.4-4.7,22.1-6.8.2-.6-2-.1-5,1.1-2.9,1.2-6.6,2.5-8.3,3-4.3,1.3-13.3,1.1-14.1-.3-.4-.7-1-4.5-1.4-8.5-.5-6.2-.3-7.2,1-6.8.8.2,3.8.9,6.5,1.5,2.8.6,5.8,1.3,6.8,1.6.9.3,1.7.1,1.7-.4,0-.4-3.3-1.6-7.4-2.5s-8.7-2.4-10.2-3.4l-2.8-1.8,5.5-1.1c5.1-1.1,4.5-1.2-8.7-1.3-14.4-.1-23.4-.9-23.4-2,0-.3,3.9-3.2,8.5-6.4L19.89.9l6.1,4.1c3.3,2.3,6.3,4,6.5,3.7.9-.9-10.6-8.7-12.8-8.7-1.3.1-5.4,2.3-9.3,5.1ZM29.49,18.9l2.5,1.9-3.7,1.2c-4.4,1.5-6,.3-3.8-2.8,1.8-2.7,2-2.7,5-.3Z"/>
  <path class="cls-1" d="M215.19,2.5c-6.9,4.8-18.8,27.6-23.3,44.7-2.3,8.6-3.6,11.7-7.1,16.3-4.5,5.9-10.6,10.8-12.2,9.8-1.7-1,0-12.6,2.9-20.2,3.5-9,6-10.8,5-3.6-.7,4.2-.6,4.6,1.1,4.3.9-.2,2.2-1.6,2.7-3.1,1.5-4.1-1-8.1-5.2-8.5-2.8-.3-3.5.2-6.2,4.4-8.7,13.7-9.6,31.4-1.6,31.4,3.1,0,10.1-5.2,13.4-10,1.5-2.2,3-3.9,3.4-4,.4,0,.8,1.5,1,3.2.4,4.6,2.2,4.1,5.9-1.7,4.6-7.2,15.3-19.9,15.7-18.6.2.6-1,3.4-2.6,6.3-3.9,6.9-6.2,14.7-5.1,17.5,1,2.7,5.4,5.7,7.3,5,.8-.3,3.1-3,5-5.9,2.9-4.2,3.6-4.8,3.6-3,0,3.4,1.8,6.2,4,6.2s8.1-6,10.7-10.8c2.1-3.8,3.7-4.3,2.3-.6-1.3,3.3-1.3,10,0,12.5,2.1,3.9,7.4,1.8,12-5,2.1-3,2.4-3.2,3.3-1.5.5,1.1,1.8,2.6,2.9,3.5,1.9,1.5,1.7,1.7-5.3,4.2-13.1,4.5-32.9,6.2-55.2,4.5-6.5-.5-8.7-.3-8.4.5,1.2,3.7,39.3,4.1,54,.6,14.4-3.4,22.4-7.6,29.9-15.9,5.3-5.9,6.8-7,9.5-7,1.7,0,3.5-.5,3.8-1.1,1.2-1.8-.4-2.3-4.1-1.1-3.4,1-3.6,1-3-1.1,2.1-7.7,1.9-9.5-1.2-12.7-1.7-1.6-3.7-3-4.5-3s-2.9,1.7-4.6,3.7q-4,4.8-7.9,7.9c-1.8,1.5-4.5,5-5.9,7.8-3.3,6.6-9.3,14-10.4,12.9-1.2-1.2.5-10.3,2.6-14.2,3.1-6.1.9-9.9-4-6.7-2.4,1.6-2.5,1.5-4-1.4-.9-1.7-2.4-3-3.4-3-2.8,0-6.8,3.6-9.8,8.8-2.7,4.8-9.6,13-12.1,14.6-2.4,1.4-.5-7.6,3.4-16.1,3.6-7.9,3.4-11.3-.5-11.3-2,0-10.7,8.9-14.9,15.2-3.7,5.6-4.2,4.6-1.5-2.9,1.9-5.2,3.9-8.2,9.7-14.4,11.4-12.1,19.7-30.1,16.7-36.5-1.2-2.8-4.6-3.2-7.8-.9ZM220.89,6.5c0,3.5-5.5,15.5-10.5,22.9-7.1,10.5-8,11.6-9.4,11.6-.6,0-1.1-.8-1.1-1.8,0-1.9,11.6-26.2,12.5-26.2.3,0-.4,1.8-1.5,4-3.4,6.6-1.4,4.5,2.6-2.8,2.1-3.7,4.2-7.3,4.7-8,1.3-1.6,2.7-1.5,2.7.3ZM272.39,44.2c.3,1.3-.1,4.5-.8,7.3-1,3.7-1.8,5.1-3.3,5.3-3.5.5-4.8-2.1-3.3-6.5,1.6-5,3.8-8.3,5.5-8.3.7,0,1.6,1,1.9,2.2ZM234.29,52.5c.6,3.1.2,4.2-4.1,9.8-4.7,6.1-4.8,6.1-5.1,3.3-.6-4.8,5-16.6,7.8-16.6.4,0,1.1,1.6,1.4,3.5ZM265.89,58c3.4,0,3.1,1.8-1.3,6.4-4.9,5.4-9.4,6.7-8.9,2.6.1-1.4,1.3-5.1,2.5-8.3l2.2-5.8,1.8,2.6c1,1.4,2.7,2.5,3.7,2.5Z"/>
  <path class="cls-1" d="M78.59,18.6c-.3.4.2,1.8,1.3,3.3,1.3,1.8,2.2,6.1,3.1,14.2l1.2,11.7-7,8.3c-22.4,27-27.8,38.8-8.3,18.2,4.6-4.8,10-10.9,12.1-13.5,3.8-4.8,4.9-4.7,4.9.4,0,1.1,1,6.1,2.1,11.1,2.5,10.3,5.6,14.7,10.6,14.7,3.5,0,10.3-5.4,10.3-8.1q0-2-2.6,0c-5.1,4-7.8,2.2-10.8-6.9-.8-2.5-1.6-5.4-1.9-6.5-.4-1.6-.5-1.5-.6.5,0,1.4.8,5,1.9,8,1.3,3.9,1.4,4.9.4,3.5-2.3-3-3.6-9.5-3-13.9.3-2.3.2-6.5-.3-9.5l-.8-5.3,9.4-10.9c9.4-11,10.9-14.1,6.7-14.7-1.5-.2-3.8,1.8-8.5,7.3-3.5,4.1-6.5,8-6.7,8.5-.7,2-2.2.9-2.2-1.6,0-3.7-2.9-14.5-4.6-17.2-1.3-2-5.3-3-6.7-1.6Z"/>
  <path class="cls-1" d="M26.09,32.2c-.7.7-1.2,2.3-1.2,3.6s-.5,3.2-1.1,4.4c-.9,1.6-.7,2.4,1.1,4.3,1.3,1.4,1.9,2.9,1.5,3.6-.5.7-.4,1,.2.6,1.4-.9,4.1,3.3,6.4,10.1,1.9,5.4,6.6,13.8,7.4,13,.2-.2-1-3.3-2.8-6.9s-4.1-8.7-5.1-11.3c-1.1-2.7-3.2-6.3-4.7-8.1-2.6-2.9-2.7-3.5-1.7-6.6.6-1.9,1.5-4.2,1.9-5.1,1.5-3,.4-3.9-1.9-1.6Z"/>
  <path class="cls-1" d="M227.89,34.7c0,1.4,2.7,2.7,11.3,5.6,6.1,2,12.6,3.9,14.2,4.2q2.9.4,1-1.1c-3.3-2.6-9.6-5.6-16.9-8-8.3-2.9-9.6-2.9-9.6-.7Z"/>
  <path class="cls-1" d="M115.79,35.2c-.1.2-.2,1.8-.4,3.6-.1,1.8-1,4.1-1.9,5.1-1.9,2.1-2.1,5.1-.3,5.1,1.5,0,4.5-2.9,4.6-4.5.1-.6.8-1.8,1.6-2.8,1.8-2.1,1.9-3.9.3-5.5-1-1-3.6-1.7-3.9-1Z"/>
  <path class="cls-1" d="M10.29,42.5c-2.1,4.5-3.2,5.2-2.8,1.7l.4-2.7-.9,2.5c-.5,1.4-2.1,4.9-3.6,7.8-1.6,2.9-2.5,5.5-2.2,5.9.4.3,1-.3,1.4-1.5.5-1.3.8.8.8,5.6.1,8.9,3.2,17.2,11,29.3,2.5,3.9,4.1,6.8,3.5,6.4-3.8-2.4,4.1,11.4,9.4,16.4,3.8,3.6,3.2,1.4-1.2-3.8-3.8-4.6-7.2-9.6-7.2-10.5,0-.3.7-.2,1.7.1,1.9.7,1.7.3-3-6.5-1.6-2.4-5-8.7-7.5-14-4.4-9.1-4.7-10.2-4.7-17.8s.2-8.4,3.9-14.5c5.1-8.3,4.9-7.9,3.7-7.9-.6,0-1.8,1.6-2.7,3.5Z"/>
  <path class="cls-1" d="M123.99,48.2c-1,2.4-2.4,6.6-3.1,9.4-1,3.7-2.2,5.9-4.7,7.8-5.6,4.5-6.8,1.9-2.8-6,2.9-5.6,2.6-7.4-1-7.4-2.7,0-3.8,1.7-5.4,9.1-1,4.6.3,7.7,4.2,9.9,2.8,1.5,2.9,1.4,6.3-2.5,1.8-2.2,3.4-3.4,3.4-2.8,0,.7.8,1.3,1.8,1.3s3.6-2.9,6.6-7.5c2.7-4.2,5-7.4,5.3-7.2.2.2-.6,2.4-1.7,4.8-2.9,6.4-2.7,11.4.6,13.6,2.3,1.4,2.9,1.5,4.9.2,4.6-2.8,12.5-13.9,9.9-13.9-.3,0-2.8,2.1-5.5,4.7-2.8,2.6-5.7,5.2-6.5,5.6-2.7,1.5-.7-7.1,2.7-12.1,3.2-4.8,3.6-7.3,1.4-9.2-1.3-1.1-2.1-.7-4.8,2.2-1.7,1.9-4.8,5.7-6.7,8.6-1.9,2.8-3.8,5.2-4.1,5.2-1.2,0,1.1-8.4,2.9-10.9.9-1.3,2.2-3,2.7-3.8.7-1,.6-1.6-.5-2.3-2.7-1.8-4.1-1-5.9,3.2Z"/>
  <path class="cls-1" d="M26.89,50.2c0,.2.8,2.5,1.9,5.3,1,2.7,2.6,9.5,3.5,15,1.7,9.8,5.5,20.4,8.2,22.6,1,.8,1.4.8,1.4.1,0-.6-.4-1.3-.9-1.7-1.6-1-5.1-11.5-7.2-21.5-2.2-10.8-4.6-18.7-6-19.5-.5-.4-.9-.5-.9-.3Z"/>
  <path class="cls-1" d="M6.09,84.1c.3.8,1.5,4.6,2.8,8.5,2.7,8.7,9.9,21.8,12.2,22.2,1.3.3.8-1.2-2.1-5.5-3.6-5.5-11.1-21.8-11.1-24.1,0-.6-.5-1.4-1.2-1.8-.7-.5-.9-.2-.6.7Z"/>
</svg>