<?xml version="1.0" standalone="no"?>
<!DOCTYPE svg PUBLIC "-//W3C//DTD SVG 20010904//EN"
 "http://www.w3.org/TR/2001/REC-SVG-20010904/DTD/svg10.dtd">
<svg version="1.0" xmlns="http://www.w3.org/2000/svg"
 width="300.000000pt" height="132.000000pt" viewBox="0 0 300.000000 132.000000"
 preserveAspectRatio="xMidYMid meet">
<metadata>
Created by potrace 1.10, written by Peter Selinger 2001-2011
</metadata>
<g transform="translate(0.000000,132.000000) scale(0.100000,-0.100000)"
fill="#000000" stroke="none">
<path d="M185 1179 c-38 -28 -79 -57 -90 -65 -17 -12 -18 -16 -5 -24 8 -5 38
-12 67 -16 39 -5 52 -11 56 -26 4 -15 1 -18 -16 -16 -19 3 -22 -3 -25 -34 -2
-22 1 -38 7 -38 6 0 11 14 11 30 0 29 13 40 25 20 3 -5 18 -9 33 -9 24 2 24 2
5 6 -18 3 -23 11 -23 35 l0 30 42 -42 c42 -41 51 -44 108 -29 11 3 16 -6 17
-36 6 -90 27 -163 74 -256 27 -55 54 -99 59 -99 6 0 -12 45 -40 100 -27 55
-50 103 -50 107 0 5 21 7 47 5 51 -3 214 47 221 68 2 6 -20 1 -50 -11 -29 -12
-66 -25 -83 -30 -43 -13 -133 -11 -141 3 -4 7 -10 45 -14 85 -5 62 -3 72 10
68 8 -2 38 -9 65 -15 28 -6 58 -13 68 -16 9 -3 17 -1 17 4 0 4 -33 16 -74 25
-41 9 -87 24 -102 34 l-28 18 55 11 c51 11 45 12 -87 13 -144 1 -234 9 -234
20 0 3 39 32 85 64 l85 58 61 -41 c33 -23 63 -40 65 -37 9 9 -106 87 -128 87
-13 -1 -54 -23 -93 -51z m191 -138 l25 -19 -37 -12 c-44 -15 -60 -3 -38 28 18
27 20 27 50 3z"/>
<path d="M2233 1205 c-69 -48 -188 -276 -233 -447 -23 -86 -36 -117 -71 -163
-45 -59 -106 -108 -122 -98 -17 10 0 126 29 202 35 90 60 108 50 36 -7 -42 -6
-46 11 -43 9 2 22 16 27 31 15 41 -10 81 -52 85 -28 3 -35 -2 -62 -44 -87
-137 -96 -314 -16 -314 31 0 101 52 134 100 15 22 30 39 34 40 4 0 8 -15 10
-32 4 -46 22 -41 59 17 46 72 153 199 157 186 2 -6 -10 -34 -26 -63 -39 -69
-62 -147 -51 -175 10 -27 54 -57 73 -50 8 3 31 30 50 59 29 42 36 48 36 30 0
-34 18 -62 40 -62 22 0 81 60 107 108 21 38 37 43 23 6 -13 -33 -13 -100 0
-125 21 -39 74 -18 120 50 21 30 24 32 33 15 5 -11 18 -26 29 -35 19 -15 17
-17 -53 -42 -131 -45 -329 -62 -552 -45 -65 5 -87 3 -84 -5 12 -37 393 -41
540 -6 144 34 224 76 299 159 53 59 68 70 95 70 17 0 35 5 38 11 12 18 -4 23
-41 11 -34 -10 -36 -10 -30 11 21 77 19 95 -12 127 -17 16 -37 30 -45 30 -8 0
-29 -17 -46 -37 -40 -48 -40 -48 -79 -79 -18 -15 -45 -50 -59 -78 -33 -66 -93
-140 -104 -129 -12 12 5 103 26 142 31 61 9 99 -40 67 -24 -16 -25 -15 -40 14
-9 17 -24 30 -34 30 -28 0 -68 -36 -98 -88 -27 -48 -96 -130 -121 -146 -24
-14 -5 76 34 161 36 79 34 113 -5 113 -20 0 -107 -89 -149 -152 -37 -56 -42
-46 -15 29 19 52 39 82 97 144 114 121 197 301 167 365 -12 28 -46 32 -78 9z
m57 -40 c0 -35 -55 -155 -105 -229 -71 -105 -80 -116 -94 -116 -6 0 -11 8 -11
18 0 19 116 262 125 262 3 0 -4 -18 -15 -40 -34 -66 -14 -45 26 28 21 37 42
73 47 80 13 16 27 15 27 -3z m515 -377 c3 -13 -1 -45 -8 -73 -10 -37 -18 -51
-33 -53 -35 -5 -48 21 -33 65 16 50 38 83 55 83 7 0 16 -10 19 -22z m-381 -83
c6 -31 2 -42 -41 -98 -47 -61 -48 -61 -51 -33 -6 48 50 166 78 166 4 0 11 -16
14 -35z m316 -55 c34 0 31 -18 -13 -64 -49 -54 -94 -67 -89 -26 1 14 13 51 25
83 l22 58 18 -26 c10 -14 27 -25 37 -25z"/>
<path d="M867 1044 c-3 -4 2 -18 13 -33 13 -18 22 -61 31 -142 l12 -117 -70
-83 c-224 -270 -278 -388 -83 -182 46 48 100 109 121 135 38 48 49 47 49 -4 0
-11 10 -61 21 -111 25 -103 56 -147 106 -147 35 0 103 54 103 81 0 20 0 20
-26 0 -51 -40 -78 -22 -108 69 -8 25 -16 54 -19 65 -4 16 -5 15 -6 -5 0 -14 8
-50 19 -80 13 -39 14 -49 4 -35 -23 30 -36 95 -30 139 3 23 2 65 -3 95 l-8 53
94 109 c94 110 109 141 67 147 -15 2 -38 -18 -85 -73 -35 -41 -65 -80 -67 -85
-7 -20 -22 -9 -22 16 0 37 -29 145 -46 172 -13 20 -53 30 -67 16z"/>
<path d="M342 908 c-7 -7 -12 -23 -12 -36 0 -13 -5 -32 -11 -44 -9 -16 -7 -24
11 -43 13 -14 19 -29 15 -36 -5 -7 -4 -10 2 -6 14 9 41 -33 64 -101 19 -54 66
-138 74 -130 2 2 -10 33 -28 69 -18 36 -41 87 -51 113 -11 27 -32 63 -47 81
-26 29 -27 35 -17 66 6 19 15 42 19 51 15 30 4 39 -19 16z"/>
<path d="M2360 883 c0 -14 27 -27 113 -56 61 -20 126 -39 142 -42 29 -4 29 -4
10 11 -33 26 -96 56 -169 80 -83 29 -96 29 -96 7z"/>
<path d="M1239 878 c-1 -2 -2 -18 -4 -36 -1 -18 -10 -41 -19 -51 -19 -21 -21
-51 -3 -51 15 0 45 29 46 45 1 6 8 18 16 28 18 21 19 39 3 55 -10 10 -36 17
-39 10z"/>
<path d="M184 805 c-21 -45 -32 -52 -28 -17 l4 27 -9 -25 c-5 -14 -21 -49 -36
-78 -16 -29 -25 -55 -22 -59 4 -3 10 3 14 15 5 13 8 -8 8 -56 1 -89 32 -172
110 -293 25 -39 41 -68 35 -64 -38 24 41 -114 94 -164 38 -36 32 -14 -12 38
-38 46 -72 96 -72 105 0 3 7 2 17 -1 19 -7 17 -3 -30 65 -16 24 -50 87 -75
140 -44 91 -47 102 -47 178 0 76 2 84 39 145 51 83 49 79 37 79 -6 0 -18 -16
-27 -35z"/>
<path d="M1321 748 c-10 -24 -24 -66 -31 -94 -10 -37 -22 -59 -47 -78 -56 -45
-68 -19 -28 60 29 56 26 74 -10 74 -27 0 -38 -17 -54 -91 -10 -46 3 -77 42
-99 28 -15 29 -14 63 25 18 22 34 34 34 28 0 -7 8 -13 18 -13 10 0 36 29 66
75 27 42 50 74 53 72 2 -2 -6 -24 -17 -48 -29 -64 -27 -114 6 -136 23 -14 29
-15 49 -2 46 28 125 139 99 139 -3 0 -28 -21 -55 -47 -28 -26 -57 -52 -65 -56
-27 -15 -7 71 27 121 32 48 36 73 14 92 -13 11 -21 7 -48 -22 -17 -19 -48 -57
-67 -86 -19 -28 -38 -52 -41 -52 -12 0 11 84 29 109 9 13 22 30 27 38 7 10 6
16 -5 23 -27 18 -41 10 -59 -32z"/>
<path d="M350 728 c0 -2 8 -25 19 -53 10 -27 26 -95 35 -150 17 -98 55 -204
82 -226 10 -8 14 -8 14 -1 0 6 -4 13 -9 17 -16 10 -51 115 -72 215 -22 108
-46 187 -60 195 -5 4 -9 5 -9 3z"/>
<path d="M142 389 c3 -8 15 -46 28 -85 27 -87 99 -218 122 -222 13 -3 8 12
-21 55 -36 55 -111 218 -111 241 0 6 -5 14 -12 18 -7 5 -9 2 -6 -7z"/>
</g>
</svg>
